<?xml version="1.0" encoding="utf-8"?>
<!-- Svg Vector Icons : http://www.onlinewebfonts.com/icon -->
<!DOCTYPE svg PUBLIC "-//W3C//DTD SVG 1.1//EN" "http://www.w3.org/Graphics/SVG/1.1/DTD/svg11.dtd">
<svg version="1.1" xmlns="http://www.w3.org/2000/svg" xmlns:xlink="http://www.w3.org/1999/xlink" x="0px" y="0px" viewBox="0 0 1000 1000" enable-background="new 0 0 1000 1000" xml:space="preserve">
<metadata> Svg Vector Icons : http://www.onlinewebfonts.com/icon </metadata>
<g><g transform="translate(0.000000,511.000000) scale(0.100000,-0.100000)"><path d="M913.2,3646.4c-63.1-7.6-153.1-28.7-200.9-45.9c-287-101.4-535.7-394.1-593.1-696.4c-11.5-67-19.1-1050.3-19.1-2812.4C100-2858.5,94.3-2715,207.2-2935c107.1-212.4,344.4-405.6,575.9-468.7c124.4-34.5,285.1-36.4,4214.8-36.4c3929.8,0,4090.5,1.9,4214.8,36.4c311.8,86.1,570.1,352,654.3,675.4c44,164.5,44,5510,0,5674.6c-82.3,313.8-315.7,564.4-627.5,671.5l-118.6,40.2l-4046.5,1.9C2849.3,3661.7,976.3,3655.9,913.2,3646.4z M9237.5,3281c128.2-67,264-220,308-346.3c32.5-93.8,34.4-239.1,34.4-2825.8c0-2624.9-1.9-2730.2-36.4-2829.6c-49.7-145.4-212.4-308-361.6-363.5l-111-40.2H4997.9H924.6l-111,40.2c-149.2,55.5-311.9,218.1-361.6,363.5c-34.4,99.5-36.3,204.7-36.3,2829.6c0,2586.7,1.9,2732.1,34.4,2825.8c59.3,168.4,235.3,334.8,415.2,390.3c26.8,7.7,1899.8,13.4,4161.2,11.5l4113.4-3.8L9237.5,3281z"/><path d="M2906.7,2546.3c-350.1-84.2-593.1-323.3-673.5-660.1c-17.2-78.4-28.7-218.1-28.7-384.6c0-225.8-3.8-264-30.6-264c-15.3,0-42.1-30.6-57.4-67c-74.6-181.7,17.2-510.8,204.7-725.1c38.3-42.1,80.3-112.9,93.7-155c34.4-107.1,89.9-214.3,166.5-323.3c53.6-72.7,61.2-97.6,40.2-111c-74.6-51.7-367.3-189.4-719.4-338.6c-522.3-221.9-585.4-256.4-694.5-369.2C978.2-1085,771.6-1603.5,769.7-1942.1v-89.9l111-40.2c275.5-105.2,727-193.2,1304.8-252.5c378.8-40.2,1859.6-32.5,2238.5,9.6c541.4,61.2,939.4,141.6,1213,243l112.9,42.1l-11.5,147.3c-30.6,376.9-218.1,818.9-447.7,1048.5c-95.7,97.6-162.6,132-673.5,350.1C4263.2-335,3966.6-195.3,3892-143.7c-21,13.4-13.4,38.3,40.2,111c76.5,109.1,132,216.2,166.5,323.3c13.4,42.1,55.5,112.9,93.7,155c132,151.1,231.5,392.2,231.5,562.5c0,107.1-36.3,214.3-78.4,223.8c-34.4,9.6-36.4,30.6-36.4,271.7c0,164.6-11.5,306.1-28.7,382.6c-80.4,340.6-325.2,577.8-686.8,662C3444.3,2584.6,3056,2582.6,2906.7,2546.3z"/><path d="M5876,1832.7c-68.9-68.9-70.8-133.9-9.6-206.6l45.9-53.6h1496.1h1496.1l45.9,53.6c61.2,72.7,59.3,137.8-9.6,206.6l-55.5,55.5h-1477h-1477L5876,1832.7z"/><path d="M5868.4,615.9c-30.6-28.7-47.8-68.9-47.8-105.2c0-36.4,17.2-76.5,47.8-105.2l45.9-47.8h1494.2h1494.2l45.9,47.8c30.6,28.7,47.8,68.9,47.8,105.2c0,36.3-17.2,76.5-47.8,105.2l-45.9,47.8H7408.5H5914.3L5868.4,615.9z"/><path d="M5906.7-564.6c-95.7-55.5-112.9-155-40.2-239.2l45.9-53.6h1496.1h1496.1l45.9,53.6c61.2,72.7,59.3,137.8-9.6,206.6l-55.5,55.5H7414.3C6344.8-543.6,5935.4-549.3,5906.7-564.6z"/></g></g>
</svg>